<?xml version="1.0" encoding="UTF-8" standalone="no"?>
<!-- Generator: Adobe Illustrator 19.0.0, SVG Export Plug-In . SVG Version: 6.00 Build 0)  -->

<svg
   xmlns:dc="http://purl.org/dc/elements/1.1/"
   xmlns:cc="http://creativecommons.org/ns#"
   xmlns:rdf="http://www.w3.org/1999/02/22-rdf-syntax-ns#"
   xmlns:svg="http://www.w3.org/2000/svg"
   xmlns="http://www.w3.org/2000/svg"
   xmlns:sodipodi="http://sodipodi.sourceforge.net/DTD/sodipodi-0.dtd"
   xmlns:inkscape="http://www.inkscape.org/namespaces/inkscape"
   version="1.1"
   id="Layer_1"
   x="0px"
   y="0px"
   viewBox="0 0 512 512"
   style="enable-background:new 0 0 512 512;"
   xml:space="preserve"
   sodipodi:docname="bubble.svg"
   inkscape:version="0.92.4 (fd57863, 2020-04-02)"><metadata
   id="metadata43"><rdf:RDF><cc:Work
       rdf:about=""><dc:format>image/svg+xml</dc:format><dc:type
         rdf:resource="http://purl.org/dc/dcmitype/StillImage" /></cc:Work></rdf:RDF></metadata><defs
   id="defs41" /><sodipodi:namedview
   pagecolor="#ffffff"
   bordercolor="#666666"
   borderopacity="1"
   objecttolerance="10"
   gridtolerance="10"
   guidetolerance="10"
   inkscape:pageopacity="0"
   inkscape:pageshadow="2"
   inkscape:window-width="640"
   inkscape:window-height="480"
   id="namedview39"
   showgrid="false"
   inkscape:zoom="0.4609375"
   inkscape:cx="256"
   inkscape:cy="256"
   inkscape:window-x="67"
   inkscape:window-y="27"
   inkscape:window-maximized="0"
   inkscape:current-layer="g6" />
<g
   id="g6">
	<g
   id="g4"
   style="fill:#ffffff">
		<path
   d="M437.333,32H74.667C33.493,32,0,65.493,0,106.667V320c0,41.173,33.493,74.667,74.667,74.667h25.387l-34.944,69.888    c-2.091,4.203-1.195,9.301,2.219,12.523C69.355,478.997,72,480,74.667,480c1.813,0,3.627-0.448,5.291-1.408l146.88-83.925h210.496    C478.507,394.667,512,361.173,512,320V106.667C512,65.493,478.507,32,437.333,32z M490.645,319.979    c0,29.397-23.936,53.333-53.333,53.333H223.979c-1.856,0-3.669,0.491-5.291,1.408L99.947,442.581l26.923-53.824    c1.664-3.285,1.472-7.232-0.469-10.368s-5.376-5.056-9.067-5.056H74.667c-29.397,0-53.333-23.936-53.333-53.333V106.667    c0-29.397,23.936-53.333,53.333-53.333v-0.021h362.645c29.397,0,53.333,23.936,53.333,53.333V319.979z"
   id="path2"
   style="fill:#ffffff" />
	</g>
</g>
<g
   id="g8">
</g>
<g
   id="g10">
</g>
<g
   id="g12">
</g>
<g
   id="g14">
</g>
<g
   id="g16">
</g>
<g
   id="g18">
</g>
<g
   id="g20">
</g>
<g
   id="g22">
</g>
<g
   id="g24">
</g>
<g
   id="g26">
</g>
<g
   id="g28">
</g>
<g
   id="g30">
</g>
<g
   id="g32">
</g>
<g
   id="g34">
</g>
<g
   id="g36">
</g>
</svg>